# xmcd
#
# Track frame offsets:
#	150
#	21582
#	36941
#	58503
#	90003
#	107577
#	129127
#	150874
#	176171
#	201800
#
# Disc length: 2970 seconds
#
# Revision: 1
# Processed by: cddbd v1.5.2PL0 Copyright (c) Steve Scherf et al.
# Submitted via: audiograbber 1.83.01
#
DISCID=710b980a
DTITLE=Junkyard Saints - Jes Like your Mama Told You!
DYEAR=2001
DGENRE=Blues
TTITLE0=She Put The Whammy On Me, Ray
TTITLE1=Big Wig (Hair Hoppin' Baby)
TTITLE2=Jumped The Gun
TTITLE3=Big Feets
TTITLE4=Serapple And Rye
TTITLE5=So Lonely
TTITLE6=Gimme Back My Heart
TTITLE7=Chicken-Leg Girl
TTITLE8=The Heart Wants
TTITLE9=Christmas Is Everyday
EXTD=
EXTT0=
EXTT1=
EXTT2=
EXTT3=
EXTT4=
EXTT5=
EXTT6=
EXTT7=
EXTT8=
EXTT9=
PLAYORDER=
